<svg xmlns="http://www.w3.org/2000/svg" viewBox="0 0 48 48">
  <path fill="#000" d="M24 4a20 20 0 1 0 0 40 20 20 0 0 0 0-40zm0 4.5a15.5 15.5 0 1 1 0 31 15.5 15.5 0 0 1 0-31z"/>
  <path fill="#000" fill-rule="evenodd" d="M24 10 36 20 32 34H16L12 20 24 10zm0 5.2 7.2 6-2.4 8.4h-9.6l-2.4-8.4L24 15.2z"/>
  <circle fill="#000" cx="24" cy="10" r="3.2"/>
  <circle fill="#000" cx="36" cy="20" r="3.2"/>
  <circle fill="#000" cx="32" cy="34" r="3.2"/>
  <circle fill="#000" cx="16" cy="34" r="3.2"/>
  <circle fill="#000" cx="12" cy="20" r="3.2"/>
  <circle fill="#000" cx="24" cy="22" r="3.6"/>
</svg>
